<svg xmlns="http://www.w3.org/2000/svg" viewBox="0 0 3795 512" width="3795" height="512">
	<style>
		tspan { white-space:pre }
		.shp0 { fill: #f4d45b } 
		.shp1 { fill: #00b2e9 } 
	</style>
	<g id="Capa 1">
		<g id="&lt;Group&gt;">
			<path id="&lt;Compound Path&gt;" fill-rule="evenodd" class="shp0" d="M335.1 236.55L363.22 362.72C365.08 369.5 364 376.75 360.24 382.7C359.8 383.4 359.32 384.09 358.81 384.75C349.4 396.98 331.86 399.27 319.62 389.86C313.93 385.43 310.39 378.78 309.9 371.57L293.24 243.95C281.27 240.09 271.7 231 267.24 219.24C262.15 205.24 260.43 190.24 262.21 175.45L264.33 157.91C266.07 146.64 272.95 136.81 282.95 131.32C300.73 121.56 323.05 128.06 332.81 145.84L340.8 161.59C347.53 174.88 351.05 189.57 351.05 204.47C350.88 217.03 345.01 228.83 335.1 236.55ZM326.54 168.87L318.54 153.11C315.49 147.88 310.3 144.24 304.34 143.16C293.07 141.11 282.27 148.59 280.22 159.86L278.1 177.41C276.62 189.69 278.05 202.14 282.28 213.77C285.52 222.2 293.02 228.28 301.94 229.71C305.35 230.34 307.96 233.1 308.4 236.54L325.82 370.06C325.91 372.9 327.25 375.55 329.49 377.31C335.06 381.17 342.7 379.82 346.62 374.29C348.06 372.05 348.46 369.29 347.72 366.73L318.28 234.79C317.53 231.41 319.04 227.93 322.02 226.17C329.92 221.77 334.88 213.5 335.05 204.46C335.04 192.1 332.12 179.9 326.54 168.87Z" />
			<path id="&lt;Path&gt;" class="shp0" d="M231.97 225.34C233.19 223.6 233.67 221.45 233.3 219.36L220.79 148.46C220.03 144.11 215.88 141.2 211.53 141.97C207.18 142.74 204.27 146.89 205.04 151.24L216.97 218.88L199.4 243.97C198.1 245.82 197.64 248.13 198.14 250.34L229.35 387C230.03 389.94 229.47 393.04 227.78 395.55C224.24 400.66 217.22 401.93 212.11 398.39C212.08 398.37 212.05 398.35 212.03 398.33C209.58 396.55 207.99 393.83 207.63 390.83L190.26 251.73C189.98 249.49 188.76 247.47 186.91 246.17L161.82 228.61L149.89 160.96C149.12 156.61 144.97 153.7 140.62 154.47C136.27 155.24 133.36 159.39 134.13 163.74L146.63 234.65C147 236.73 148.19 238.59 149.92 239.81L174.82 257.25L191.8 392.83C193.67 407.64 207.19 418.12 222 416.25C236.81 414.37 247.29 400.85 245.42 386.05C245.31 385.18 245.15 384.31 244.96 383.46L214.54 250.24L231.97 225.34Z" />
			<path id="&lt;Path&gt;" class="shp0" d="M178.15 229.09C182.5 228.32 185.4 224.17 184.64 219.82L173.52 156.79C172.76 152.44 168.61 149.54 164.26 150.3C159.9 151.07 157 155.22 157.77 159.57L168.88 222.6C169.65 226.95 173.8 229.86 178.15 229.09Z" />
			<path id="&lt;Path&gt;" class="shp0" d="M181.4 155.4L192.52 218.43C193.28 222.78 197.43 225.69 201.78 224.92C206.13 224.15 209.04 220 208.27 215.65L197.16 152.63C196.39 148.27 192.24 145.37 187.89 146.14C183.54 146.9 180.63 151.05 181.4 155.4Z" />
			<g id="&lt;Group&gt;">
				<g id="&lt;Group&gt;">
					<path id="&lt;Compound Path&gt;" fill-rule="evenodd" class="shp1" d="M492.35 214.3C515.37 344.84 428.21 469.32 297.68 492.33C167.14 515.35 42.66 428.19 19.65 297.65C-3.37 167.12 83.79 42.64 214.32 19.62C344.82 -3.23 469.2 83.86 492.35 214.3ZM476.6 217.08C455.11 95.25 338.94 13.9 217.1 35.38C95.27 56.86 13.92 173.04 35.4 294.88C56.89 416.71 173.06 498.06 294.9 476.58C416.65 454.96 497.93 338.88 476.6 217.08Z" />
				</g>
			</g>
			<g id="&lt;Group&gt;">
				<path id="&lt;Path&gt;" class="shp1" d="M297.53 393.88C286.66 397.12 275.46 399.1 264.14 399.77C259.73 400.02 256.36 403.8 256.61 408.22C256.87 412.63 260.65 416 265.06 415.74C277.62 415.01 290.05 412.82 302.09 409.21C306.35 408.03 308.84 403.62 307.65 399.36C306.46 395.1 302.05 392.62 297.8 393.8C297.7 393.83 297.6 393.86 297.5 393.89L297.53 393.88Z" />
			</g>
			<g id="&lt;Group&gt;">
				<path id="&lt;Path&gt;" class="shp1" d="M347.34 134.22C344.51 137.61 344.96 142.65 348.35 145.49C405.8 193.5 416.87 277.52 373.82 338.78C371.27 342.39 372.15 347.38 375.76 349.93C379.38 352.47 384.37 351.6 386.91 347.98C434.75 279.92 422.47 186.56 358.64 133.2C355.26 130.36 350.21 130.8 347.37 134.19C347.36 134.2 347.35 134.21 347.34 134.22Z" />
			</g>
			<g id="&lt;Group&gt;">
				<path id="&lt;Path&gt;" class="shp1" d="M179.85 133.08C180.8 132.91 181.72 132.57 182.54 132.08C207.49 117.38 236.25 110.47 265.15 112.23C269.56 112.51 273.36 109.16 273.64 104.75C273.92 100.34 270.57 96.54 266.16 96.26C234.06 94.31 202.12 101.99 174.42 118.31C170.62 120.56 169.36 125.46 171.61 129.27C173.31 132.14 176.61 133.65 179.89 133.07L179.85 133.08Z" />
			</g>
			<g id="&lt;Group&gt;">
				<path id="&lt;Path&gt;" class="shp1" d="M114.19 280.98C108.82 251.01 113.17 220.11 126.59 192.79C128.59 188.85 127.02 184.03 123.08 182.03C119.14 180.03 114.33 181.6 112.32 185.54C112.29 185.61 112.25 185.68 112.22 185.75C77.71 256.4 99.66 341.66 163.99 386.87C167.61 389.41 172.61 388.53 175.15 384.91C177.69 381.28 176.81 376.29 173.18 373.75C141.95 351.92 120.71 318.53 114.19 280.98Z" />
			</g>
		</g>
		<g id="&lt;Group&gt;">
			<g id="&lt;Group&gt;">
				<g id="&lt;Group&gt;">
					<g id="&lt;Group&gt;">
						<path id="&lt;Compound Path&gt;" fill-rule="evenodd" class="shp1" d="M1146.72 200.63C1145.39 202.99 1143.12 204.52 1140.63 204.96C1138.72 205.29 1136.68 205.01 1134.86 203.98L1085.32 176.21L1123.34 391.81C1124.17 396.55 1120.99 401.06 1116.25 401.9L814.65 455.08C809.92 455.91 805.4 452.75 804.56 448.02L766.55 232.42L729.49 275.46C728.13 277.03 726.31 278.01 724.4 278.35C721.92 278.79 719.26 278.13 717.18 276.37C713.55 273.21 713.13 267.71 716.27 264.06L787.68 181.17L774.14 104.42C773.3 99.66 776.46 95.14 781.2 94.31L831.06 85.52C835.8 84.68 840.34 87.84 841.18 92.6L845.05 114.58L889.38 63.09C895.01 56.55 904.45 54.89 911.96 59.11L1143.39 188.75C1147.58 191.1 1149.07 196.41 1146.72 200.63ZM1065.67 165.21L911.36 78.76C906.47 76.02 900.32 77.11 896.67 81.35L781.25 215.36L820.22 436.38L1104.64 386.23L1065.67 165.21ZM802.37 164.1L830.33 131.64L825.49 104.21L792.83 109.97L802.37 164.1Z" />
					</g>
				</g>
			</g>
			<path id="&lt;Compound Path&gt;" fill-rule="evenodd" class="shp0" d="M1071.66 327.69C1070.93 329.29 1069.61 330.51 1067.96 331.13L1050.42 337.66L1060.45 338.17C1063.08 338.3 1065.37 339.98 1066.29 342.44C1066.55 343.12 1066.68 343.83 1066.7 344.56L1066.84 349.67C1066.89 351.44 1066.2 353.18 1064.96 354.45C1063.99 355.44 1062.76 356.09 1061.39 356.33C1061.01 356.4 1060.61 356.43 1060.22 356.43L1031.99 356.34C1033.49 360.68 1033.05 365.42 1030.75 369.42C1028.39 373.53 1024.36 376.36 1019.68 377.19L882.69 401.38C862.48 404.95 843.35 392.61 840.05 373.87C838.37 364.35 841.11 354.99 846.85 347.61L829.24 247.71C827.68 238.9 833.5 230.47 842.24 228.77L840.96 221.51C838.19 221.52 835.73 219.54 835.24 216.73L832.34 200.28C831.78 197.14 833.89 194.13 837.04 193.57L864.87 188.66C868.02 188.11 871.03 190.22 871.58 193.36L874.48 209.81C874.98 212.62 873.34 215.32 870.74 216.26L872.02 223.52C880.81 222.12 889.16 228.06 890.72 236.87L892.97 249.67C893.67 249.31 894.39 248.98 895.15 248.71C898.6 247.46 902.39 247.34 905.9 248.33C907.96 245.33 910.94 243 914.4 241.75C915.36 241.41 916.34 241.14 917.34 240.97C921.72 240.19 926.04 241.12 929.59 243.31L943.24 223.78C944.14 222.49 945.49 221.62 947.05 221.35C948.6 221.07 950.17 221.42 951.46 222.33C955.87 225.43 959.34 229.38 961.79 233.8C965.75 230.2 970.64 227.77 976.03 226.82C979.61 226.19 983.24 226.25 986.81 226.99C987.38 227.1 987.92 227.34 988.4 227.67C988.9 228.03 989.29 228.46 989.6 228.96C992.4 233.5 993.8 238.62 993.85 243.74C995 243.28 996.22 242.92 997.49 242.7C1007.14 241 1016.39 247.23 1018.55 256.7C1018.97 256.6 1019.39 256.52 1019.82 256.44C1023.14 255.86 1026.5 255.91 1029.82 256.6C1030.39 256.72 1030.91 256.94 1031.38 257.27C1031.85 257.6 1032.25 258.02 1032.55 258.52C1036.29 264.58 1037.36 271.73 1035.85 278.41C1038 278.95 1039.76 280.71 1040.17 283.04C1041.09 288.29 1041.53 293.53 1041.51 298.74C1042.33 298.49 1043.19 298.38 1044.05 298.46C1045.81 298.61 1047.46 299.47 1048.58 300.84L1051.84 304.8C1052.31 305.37 1052.67 306 1052.92 306.67C1053.84 309.14 1053.21 311.91 1051.31 313.73L1044.06 320.67L1061.62 314.14C1062 314 1062.39 313.89 1062.78 313.82C1065.91 313.27 1068.99 315.03 1070.1 318L1071.84 322.66C1072.45 324.31 1072.39 326.09 1071.66 327.69ZM1025.35 358.39L1011.83 322.23C1010.9 319.74 1008.92 317.8 1006.39 316.92C1003.86 316.04 1001.09 316.32 998.78 317.69L973.9 332.52L977.4 341.87C978.07 343.67 977.15 345.67 975.36 346.34C975.15 346.42 974.95 346.47 974.74 346.51C973.12 346.79 971.48 345.9 970.88 344.3L967.83 336.14L963.14 338.94C961.49 339.92 959.36 339.38 958.37 337.73C957.39 336.09 957.93 333.95 959.58 332.97L995.22 311.72C999.3 309.29 1004.2 308.79 1008.68 310.35C1012.67 311.75 1015.9 314.63 1017.73 318.38L1034.35 304.16C1034.81 297.94 1034.54 291.67 1033.51 285.37L1006.91 290.06C1005.02 290.4 1003.22 289.13 1002.88 287.24C1002.55 285.35 1003.81 283.55 1005.7 283.22L1009.38 282.57C1009.38 281.52 1009.22 280.46 1008.84 279.41C1007.43 275.49 1003.54 273 999.39 273.37C997.59 273.52 995.98 272.28 995.66 270.51C995.57 269.99 995.43 269.48 995.26 268.99C993.74 264.77 989.42 262.27 985 263.05C984.48 263.14 983.96 263.28 983.45 263.46C981.72 264.09 980.27 265.18 979.2 266.62C982.19 266.38 984.94 268.46 985.47 271.48C986.41 276.8 986.07 282.05 984.68 286.93L986.08 286.68C987.97 286.34 989.77 287.61 990.11 289.5C990.44 291.39 989.18 293.19 987.29 293.52L875.8 313.18C876.5 316.85 877.44 320.42 878.61 323.9C879.11 323.34 879.8 322.93 880.59 322.79C882.49 322.46 884.29 323.72 884.62 325.61L884.99 327.68C887.29 326.68 889.95 325.89 892.8 325.39C896.94 324.66 901 324.62 904.23 325.28C909.17 326.29 910.91 328.65 911.5 330.4C921.16 333.25 929.22 339.78 933.45 348.55L942.12 343.38C943.77 342.39 945.9 342.93 946.89 344.58C947.87 346.23 947.33 348.36 945.68 349.35L927.05 360.45L929.45 366.87C930.12 368.67 929.21 370.67 927.41 371.34C927.21 371.42 927 371.48 926.79 371.51C925.17 371.8 923.53 370.9 922.94 369.3L920.98 364.07L908.43 371.55C904.7 373.78 903.1 378.32 904.61 382.36L904.84 382.98C906.35 387.02 910.55 389.41 914.83 388.66C914.83 388.66 914.83 388.66 914.83 388.66L954.83 381.59L951.25 372.03C950.58 370.23 951.49 368.23 953.29 367.55C955.09 366.88 957.09 367.79 957.76 369.59L961.79 380.36L989.18 375.52L986.67 368.79C986 366.99 986.91 364.99 988.71 364.32C990.51 363.65 992.51 364.56 993.18 366.36L996.14 374.29L1007.92 372.21L1003.99 361.69C1003.31 359.89 1004.23 357.89 1006.03 357.21C1007.82 356.54 1009.83 357.45 1010.5 359.25L1014.88 370.98L1018.47 370.34C1021.11 369.87 1023.39 368.28 1024.73 365.96C1026.05 363.65 1026.28 360.89 1025.35 358.39ZM990.2 256.36C995.37 257.53 999.78 261.22 1001.73 266.46C1002.23 266.5 1002.71 266.58 1003.19 266.67C1005.56 263.51 1008.54 260.96 1011.94 259.16C1011.92 259.04 1011.91 258.93 1011.89 258.81C1010.8 252.61 1004.88 248.45 998.7 249.54C994.75 250.24 991.65 252.91 990.2 256.36ZM963.26 242.6C960.73 246.21 959.43 250.41 959.35 254.64C961.25 254.56 963.11 254.79 964.87 255.27L971.94 245.16C973.04 243.58 975.2 243.2 976.78 244.3C978.35 245.4 978.74 247.57 977.64 249.14L971.17 258.39C972.37 259.3 973.45 260.35 974.4 261.53C976.19 259.47 978.49 257.87 981.09 256.93C981.67 256.71 982.27 256.54 982.88 256.4C983.5 253.89 984.63 251.56 986.19 249.54C987.58 244.25 986.95 238.54 984.25 233.59C981.92 233.23 979.57 233.26 977.24 233.67C971.54 234.67 966.58 237.84 963.26 242.6ZM960.1 286.92C961.2 285.35 963.37 284.97 964.94 286.07L968.74 288.73C969.08 288.97 969.36 289.26 969.59 289.59L976.83 288.31C978.74 283.85 979.5 278.84 978.79 273.72L924.49 283.3C925.57 288.35 928 292.79 931.31 296.34L938.28 295.11C938.38 294.73 938.54 294.36 938.78 294.02L941.44 290.21C942.54 288.64 944.71 288.26 946.28 289.36C947.62 290.3 948.1 292.02 947.52 293.48L951.01 292.86C951.29 291.5 952.36 290.38 953.81 290.13C955.26 289.87 956.65 290.56 957.38 291.74L960.34 291.22C959.3 290.04 959.16 288.26 960.1 286.92ZM948.74 271.96L970.38 268.15C968.25 263.59 963.27 260.83 958.1 261.74C952.93 262.65 949.19 266.95 948.74 271.96ZM934.71 248.13C935.58 249.38 936.31 250.77 936.85 252.27C936.86 252.28 936.86 252.29 936.86 252.3C941.55 252.69 945.84 254.96 948.82 258.49C949.92 257.63 951.13 256.89 952.42 256.3C952.38 255.31 952.39 254.32 952.44 253.34L948.44 254.04C946.55 254.38 944.75 253.11 944.42 251.22C944.08 249.33 945.35 247.53 947.24 247.2L951.8 246.39C952.45 246.28 953.09 246.36 953.67 246.58C954.42 244.15 955.5 241.79 956.92 239.59C955.09 235.38 952.2 231.58 948.32 228.64L934.71 248.13ZM891.14 268.8C891.34 269.36 891.59 269.91 891.89 270.44C892.78 272 892.33 273.99 890.85 275.01C886.92 277.74 885.3 282.8 886.93 287.3C887.61 289.19 888.78 290.77 890.25 291.95C890.17 289.85 890.34 287.71 890.78 285.59C890.89 285.03 891.12 284.5 891.45 284.02C891.78 283.55 892.2 283.16 892.68 282.85C895.57 281.07 898.71 279.87 902.03 279.29C907.34 278.35 912.68 279.04 917.49 281.2C917.98 278.93 919.8 277.06 922.23 276.64L941.75 273.19C941.71 269.85 942.59 266.64 944.18 263.86C942.07 260.73 938.39 258.89 934.5 259.23C932.71 259.39 931.09 258.15 930.78 256.38C930.67 255.78 930.52 255.19 930.31 254.63C928.57 249.79 923.62 246.92 918.55 247.81C917.94 247.92 917.35 248.08 916.76 248.29C914 249.29 911.82 251.33 910.64 254.04C910.26 254.91 909.53 255.59 908.63 255.92C907.74 256.24 906.74 256.18 905.89 255.75C903.83 254.71 901.55 254.37 899.29 254.77C898.69 254.88 898.09 255.04 897.51 255.25C892.02 257.23 889.16 263.31 891.14 268.8ZM906.7 294.72C907.8 293.15 909.97 292.77 911.54 293.87L918.32 298.63L923.48 297.72C921.91 295.56 920.58 293.21 919.53 290.68C919.02 290.23 918.47 289.8 917.9 289.4C913.61 286.38 908.4 285.22 903.24 286.13C901.18 286.5 899.22 287.18 897.38 288.17C896.69 293 897.83 297.83 900.43 301.78L908.65 300.33L907.55 299.56C905.98 298.46 905.6 296.29 906.7 294.72ZM880.93 305.22L893.14 303.07C892.72 302.25 892.35 301.4 892.02 300.55C889.34 299.78 886.89 298.38 884.86 296.47C882.39 298.63 880.89 301.81 880.93 305.22ZM841.88 214.38L867.43 209.88L864.94 195.71L839.38 200.22L841.88 214.38ZM847.82 220.39L849.08 227.56L865.17 224.72L863.91 217.56L847.82 220.39ZM845.64 300.68L876.91 295.16C877.97 293.51 879.29 292.02 880.84 290.78C880.68 290.41 880.52 290.04 880.39 289.66C878.04 283.14 879.78 275.93 884.61 271.19C884.6 271.18 884.6 271.17 884.6 271.16C882.57 265.53 883.61 259.54 886.85 255L886.32 251.96L879.93 253.09C878.04 253.42 876.23 252.16 875.9 250.27C875.57 248.38 876.83 246.58 878.72 246.24L885.11 245.12L883.87 238.08C882.96 232.95 878.06 229.5 872.95 230.41L843.72 235.56C838.61 236.46 835.18 241.37 836.08 246.51L837.32 253.54L859.55 249.62C861.44 249.29 863.24 250.55 863.58 252.44C863.91 254.33 862.65 256.13 860.76 256.47L838.53 260.39L845.64 300.68ZM846.84 307.52L852.84 341.53C853.27 341.18 853.7 340.84 854.15 340.51C854.11 338.67 854.93 335.85 859.23 333.21C862.04 331.49 865.87 330.13 870.01 329.4C871.04 329.22 872.05 329.09 873.05 328.99C871.15 323.95 869.71 318.7 868.75 313.26C868.19 310.11 870.3 307.09 873.45 306.54L874.03 306.44C873.94 305.17 873.98 303.93 874.14 302.71L846.84 307.52ZM895.81 338.52C895.96 337.12 896.93 335.95 898.27 335.55C901.54 334.57 903.5 333.35 904.38 332.55C903.01 332 899.65 331.24 894.01 332.23C889.34 333.05 886.1 334.64 884.62 335.85C883.69 336.61 882.42 336.84 881.27 336.44C879.47 335.81 875.89 335.43 871.22 336.25C865.58 337.24 862.68 339.11 861.58 340.1C862.68 340.55 864.94 341.02 868.35 340.83C869.75 340.75 871.06 341.51 871.67 342.77C872.29 344.03 872.09 345.54 871.16 346.59C870.1 347.8 869.5 348.77 869.17 349.45C869.21 349.44 869.25 349.43 869.29 349.43C871.23 349.09 874.57 347.69 878.15 344.8C879.47 343.73 880.67 342.57 881.6 341.44C882.69 340.14 884.56 339.81 886.03 340.66C887.29 341.4 888.81 342.08 890.42 342.64C894.77 344.13 898.39 344.3 900.32 343.96C900.37 343.95 900.41 343.94 900.45 343.93C899.91 343.4 899.01 342.7 897.6 341.93C896.37 341.26 895.66 339.91 895.81 338.52ZM881.48 394.54L901.85 390.95C900.34 389.4 899.12 387.54 898.33 385.41L898.1 384.8C895.41 377.61 898.26 369.53 904.87 365.58L927.46 352.12C924.18 344.88 917.63 339.47 909.68 337.09C908.77 338.07 907.57 338.98 906.1 339.81C906.91 340.76 907.54 341.82 907.85 342.99C908.27 344.54 908.05 346.12 907.24 347.45C906.16 349.19 904.24 350.32 901.53 350.8L901.53 350.8C897.91 351.44 892.92 350.84 888.16 349.21C887.07 348.83 886.02 348.42 885.03 347.96C884.26 348.73 883.42 349.48 882.52 350.21C878.61 353.37 874.12 355.64 870.5 356.27C867.79 356.75 865.6 356.35 863.99 355.07C862.78 354.11 862.03 352.69 861.89 351.09C861.78 349.89 862.01 348.67 862.44 347.5C860.78 347.23 859.35 346.78 858.15 346.18C849.77 352.43 845.09 362.44 846.9 372.67C849.53 387.62 865.05 397.44 881.48 394.54ZM1009.79 269.56C1011.78 271.03 1013.43 272.96 1014.59 275.23L1015.87 273.4C1016.97 271.83 1019.13 271.44 1020.71 272.54C1022.28 273.64 1022.67 275.81 1021.57 277.38L1019.15 280.85L1028.37 279.22C1030.26 274.02 1029.9 268.19 1027.23 263.19C1025.17 262.89 1023.08 262.93 1021.02 263.29C1016.63 264.06 1012.72 266.27 1009.79 269.56ZM1065.19 324.74L1063.71 320.78L1030.72 333.05C1029.18 333.63 1027.44 333.04 1026.57 331.64C1025.69 330.24 1025.92 328.42 1027.11 327.28L1046.25 308.95L1043.44 305.53L1020.39 325.26L1029.4 349.38L1059.88 349.48L1059.76 345.09L1033.25 343.74C1031.6 343.66 1030.24 342.43 1029.99 340.8C1029.74 339.17 1030.67 337.59 1032.21 337.01L1065.19 324.74Z" />
			<g id="&lt;Group&gt;">
				<path id="&lt;Path&gt;" class="shp1" d="M1050.32 262.17C1045.97 262.94 1041.82 260.03 1041.06 255.68C1031.15 199.52 977.41 161.89 921.24 171.79C911.22 173.56 901.58 176.75 892.58 181.29C888.64 183.28 883.83 181.69 881.84 177.75C879.85 173.8 881.43 168.99 885.38 167C895.77 161.76 906.9 158.07 918.47 156.03C983.32 144.6 1045.38 188.06 1056.81 252.91C1057.58 257.26 1054.67 261.41 1050.32 262.17Z" />
			</g>
		</g>
		<g id="&lt;Group&gt;">
			<path id="&lt;Compound Path&gt;" fill-rule="evenodd" class="shp1" d="M1806.18 355.97C1809.44 355.39 1812.55 357.57 1813.13 360.84L1813.13 360.84C1813.7 364.1 1811.52 367.21 1808.26 367.79L1465.55 428.22C1462.28 428.79 1459.17 426.61 1458.6 423.35L1458.6 423.35C1458.02 420.09 1460.2 416.97 1463.46 416.4L1504.82 409.11L1479.82 267.29L1462.09 270.42C1458.83 271 1455.72 268.82 1455.14 265.55L1452.02 247.83C1451.64 245.69 1452.45 243.53 1454.12 242.16L1547.37 165.95C1547.19 165.31 1547.03 164.72 1546.92 164.07C1542.31 137.97 1559.75 113.07 1585.85 108.47C1611.96 103.87 1636.85 121.3 1641.46 147.4C1641.57 148.05 1641.62 148.66 1641.67 149.32L1755.36 189.04C1757.4 189.75 1758.9 191.52 1759.28 193.65L1762.4 211.37C1762.98 214.64 1760.8 217.75 1757.54 218.33L1739.81 221.45L1764.81 363.26L1806.18 355.97ZM1558.73 161.99C1561.26 176.33 1572.18 187.74 1586.39 190.88C1600.61 194.04 1615.32 188.31 1623.68 176.39C1632.03 164.46 1632.37 148.68 1624.55 136.4C1616.72 124.12 1602.28 117.76 1587.93 120.29C1568.35 123.74 1555.28 142.41 1558.73 161.99ZM1468.26 257.15L1747.2 207.96C1748.49 207.73 1749.36 206.5 1749.13 205.21L1748.32 200.59C1748.17 199.74 1747.57 199.04 1746.76 198.76L1641.78 162.03C1640.99 167.91 1639.12 173.59 1636.27 178.78L1640.76 177.99C1650.54 176.3 1659.85 182.82 1661.61 192.59C1663.34 202.38 1656.8 211.72 1647.01 213.44L1564.28 228.03C1554.5 229.72 1545.19 223.2 1543.43 213.43C1541.71 203.64 1548.24 194.3 1558.03 192.58L1562.52 191.79C1558.06 187.88 1554.36 183.18 1551.61 177.93L1465.53 248.35C1464.86 248.89 1464.54 249.75 1464.69 250.6L1465.51 255.22C1465.73 256.51 1466.97 257.38 1468.26 257.15ZM1624.29 193.08C1611.49 203.46 1594.24 206.5 1578.67 201.12L1560.12 204.39C1558.57 204.64 1557.2 205.52 1556.34 206.83C1555.35 208.11 1554.95 209.75 1555.25 211.35C1555.83 214.61 1558.94 216.79 1562.2 216.21L1644.92 201.63C1646.47 201.38 1647.84 200.5 1648.7 199.2C1649.69 197.91 1650.09 196.27 1649.79 194.68C1649.22 191.41 1646.1 189.23 1642.84 189.81L1624.29 193.08ZM1727.99 223.53L1491.64 265.21L1516.64 407.02L1534.37 403.9L1514.57 291.63C1514 288.37 1516.18 285.25 1519.44 284.68L1596.26 271.13C1599.52 270.56 1602.63 272.74 1603.21 276L1623 388.27L1753 365.35L1727.99 223.53ZM1592.43 283.99L1527.43 295.45L1546.19 401.81L1611.18 390.35L1592.43 283.99Z" />
			<path id="&lt;Path&gt;" class="shp1" d="M1467.63 440.03L1810.34 379.61C1813.61 379.03 1816.72 381.21 1817.29 384.47L1817.29 384.47C1817.87 387.74 1815.69 390.85 1812.43 391.42L1469.71 451.85C1466.45 452.43 1463.34 450.25 1462.76 446.99L1462.76 446.99C1462.19 443.72 1464.37 440.61 1467.63 440.03Z" />
			<path id="&lt;Compound Path&gt;" class="shp0" d="M1599.22 167.04L1593.32 168.08C1591.68 168.37 1590.13 167.28 1589.84 165.64L1578.02 167.73C1579.26 174.75 1585.27 179.93 1592.39 180.12L1593.49 186.33L1605.3 184.24L1604.21 178.03C1611.37 175.2 1615.22 167.41 1613.12 160.01C1611.03 152.6 1603.68 147.98 1596.1 149.31L1590.19 150.35C1586.25 151.05 1585.21 145.14 1589.15 144.44L1595.06 143.4C1596.69 143.11 1598.24 144.2 1598.53 145.83L1610.35 143.75C1609.11 136.73 1603.11 131.55 1595.98 131.36L1594.89 125.15L1583.07 127.24L1584.16 133.45C1577.01 136.28 1573.16 144.07 1575.25 151.47C1577.34 158.88 1584.69 163.5 1592.27 162.17L1598.18 161.13C1602.12 160.43 1603.16 166.34 1599.22 167.04Z" />
			<path id="&lt;Compound Path&gt;" fill-rule="evenodd" class="shp0" d="M1715.47 256.2L1727.98 327.11C1728.55 330.37 1726.37 333.49 1723.11 334.06L1640.39 348.65C1637.12 349.22 1634.01 347.04 1633.44 343.78L1620.93 272.87C1620.36 269.61 1622.54 266.5 1625.8 265.92L1708.52 251.34C1711.78 250.76 1714.9 252.94 1715.47 256.2ZM1669.59 306.94L1640.04 312.15L1644.21 335.79L1673.76 330.58L1669.59 306.94ZM1663.34 271.49L1633.79 276.7L1637.96 300.34L1667.5 295.13L1663.34 271.49ZM1710.95 299.65L1681.41 304.86L1685.57 328.5L1715.12 323.29L1710.95 299.65ZM1704.7 264.2L1675.15 269.41L1679.32 293.04L1708.87 287.83L1704.7 264.2Z" />
			<path id="&lt;Path&gt;" class="shp1" d="M1577.33 60.15L1577.33 60.15C1580.59 59.57 1583.71 61.75 1584.28 65.01L1588.63 89.7C1589.21 92.96 1587.03 96.08 1583.77 96.65L1583.77 96.65C1580.5 97.23 1577.39 95.05 1576.82 91.78L1572.46 67.1C1571.89 63.83 1574.07 60.72 1577.33 60.15Z" />
			<path id="&lt;Path&gt;" class="shp1" d="M1554.22 101.86L1554.22 101.86C1557.49 101.29 1560.6 103.46 1561.17 106.73L1561.17 106.73C1561.75 109.99 1559.57 113.1 1556.31 113.68L1556.31 113.68C1553.04 114.25 1549.93 112.07 1549.36 108.81L1549.36 108.81C1548.78 105.55 1550.96 102.44 1554.22 101.86Z" />
			<path id="&lt;Path&gt;" class="shp1" d="M1549.46 74.85L1549.46 74.85C1552.72 74.28 1555.84 76.46 1556.41 79.72L1557.84 87.84C1558.42 91.1 1556.24 94.21 1552.98 94.79L1552.98 94.79C1549.71 95.37 1546.6 93.19 1546.03 89.92L1544.59 81.8C1544.02 78.54 1546.2 75.43 1549.46 74.85Z" />
			<path id="&lt;Path&gt;" class="shp1" d="M1612.06 84.37L1612.06 84.37C1615.33 83.8 1618.44 85.98 1619.02 89.24L1620.26 96.31C1620.84 99.57 1618.66 102.68 1615.39 103.26L1615.39 103.26C1612.13 103.83 1609.02 101.66 1608.44 98.39L1607.2 91.32C1606.62 88.06 1608.8 84.95 1612.06 84.37Z" />
			<path id="&lt;Path&gt;" class="shp1" d="M1609.14 67.81L1609.14 67.81C1612.41 67.23 1615.52 69.41 1616.09 72.67L1616.09 72.67C1616.67 75.94 1614.49 79.05 1611.23 79.62L1611.23 79.62C1607.96 80.2 1604.85 78.02 1604.28 74.76L1604.28 74.76C1603.7 71.49 1605.88 68.38 1609.14 67.81Z" />
			<path id="&lt;Path&gt;" class="shp0" d="M1546.54 334.73L1546.54 334.73C1549.81 334.16 1552.92 336.34 1553.49 339.6L1555.58 351.42C1556.15 354.68 1553.97 357.79 1550.71 358.37L1550.71 358.37C1547.45 358.94 1544.34 356.76 1543.76 353.5L1541.68 341.68C1541.1 338.42 1543.28 335.31 1546.54 334.73Z" />
		</g>
		<g id="&lt;Group&gt;">
			<path id="&lt;Compound Path&gt;" fill-rule="evenodd" class="shp1" d="M2311.4 202.6C2317.05 195.86 2321.57 188.18 2324.05 180.54C2325.61 175.73 2328.1 170.91 2331.66 165.83C2344.21 147.92 2367.59 143.49 2393.46 153.82L2433.04 97.29L2430.15 95.26C2427.41 93.34 2426.75 89.57 2428.66 86.84C2430.58 84.1 2434.35 83.44 2437.09 85.35L2439.98 87.38L2443.72 82.04L2440.82 80.01C2438.09 78.1 2437.42 74.32 2439.34 71.59C2441.26 68.85 2445.03 68.19 2447.76 70.1L2450.66 72.13L2457.66 62.13C2459.58 59.39 2463.35 58.73 2466.09 60.64L2493.28 79.68C2494.6 80.6 2495.49 82 2495.77 83.58C2496.05 85.16 2495.69 86.79 2494.77 88.1L2487.76 98.11L2491.88 100.99C2494.61 102.91 2495.28 106.68 2493.36 109.41C2492.4 110.78 2490.98 111.63 2489.46 111.9C2487.93 112.17 2486.3 111.86 2484.94 110.9L2480.83 108.02L2477.09 113.36L2481.2 116.24C2483.93 118.15 2484.6 121.93 2482.68 124.66C2481.72 126.03 2480.3 126.88 2478.78 127.15C2477.25 127.42 2475.63 127.1 2474.26 126.15L2470.15 123.27L2430.54 179.84C2438.34 188.67 2443.66 198.25 2446.01 207.79C2449.14 220.48 2446.9 232.74 2439.54 243.26C2436.78 247.21 2433.45 250.76 2429.67 253.78C2428.48 254.74 2427.28 255.79 2426.1 256.9C2425.21 257.75 2424.12 258.27 2423 258.47C2421.06 258.81 2419 258.2 2417.55 256.67C2415.25 254.25 2410.43 254.91 2412.86 252.61C2414.27 251.27 2420.65 245.5 2422.11 244.34C2424.99 242.03 2427.53 239.33 2429.63 236.32C2442.05 218.58 2431.34 200.04 2423.34 190.11L2383.2 247.44C2383.73 249.75 2386.37 254.94 2384.04 254.49C2378.17 253.36 2370.35 252.54 2360.59 252.02L2371.62 251.14C2370.66 245.69 2367.62 240.6 2362.74 237.18C2357.86 233.76 2352.04 232.65 2346.59 233.61C2341.14 234.57 2336.05 237.61 2332.63 242.49C2330.71 245.23 2329.52 248.27 2329.01 251.38C2325.1 251.39 2321.02 251.43 2316.78 251.5C2317.35 245.82 2319.36 240.35 2322.72 235.55C2328.39 227.46 2336.99 222.62 2346.1 221.46L2386.28 164.08C2374.29 159.88 2353.39 155.89 2341.57 172.77C2338.71 176.86 2336.74 180.62 2335.55 184.28C2331.81 195.79 2324.38 207.18 2315.21 216.34L2311.4 202.6ZM2329.01 251.38C2341.16 251.33 2351.69 251.55 2360.59 252.02L2328.73 254.57C2328.75 253.51 2328.84 252.44 2329.01 251.38ZM2449.56 131.58L2432.28 119.48L2360.07 222.61C2363.41 223.61 2366.66 225.16 2369.68 227.27L2369.68 227.27C2372.69 229.38 2375.26 231.91 2377.35 234.71L2449.56 131.58ZM2460.24 116.33L2442.95 104.23L2439.22 109.57L2456.5 121.67L2460.24 116.33ZM2470.91 101.08L2453.63 88.98L2449.89 94.32L2467.18 106.42L2470.91 101.08ZM2477.85 91.17L2481.39 86.12L2464.1 74.02L2460.57 79.07L2477.85 91.17Z" />
			<path id="&lt;Compound Path&gt;" fill-rule="evenodd" class="shp1" d="M2120.69 209.42C2137.61 185.26 2172.76 163.09 2197.72 151.45C2217.13 142.4 2239.5 135.23 2259.09 131.77C2271.44 129.6 2282.39 128.9 2291.63 129.71C2293.96 129.91 2296 131.34 2296.98 133.46C2300.12 140.17 2303.04 147.25 2305.72 154.57C2305.81 154.78 2305.88 155 2305.95 155.22C2316.43 184 2323.19 216.38 2324.48 244.92C2340.9 243.11 2358.69 242.89 2375.35 244.35C2402.78 246.75 2443.38 255.55 2467.55 272.48C2469.46 273.81 2470.52 276.07 2470.31 278.4C2469.61 286.42 2468.48 294.68 2466.98 303.02C2466.98 303.04 2466.98 303.05 2466.98 303.06C2461.8 331.79 2452.13 361.52 2439.69 386.16C2426.2 412.9 2403.35 445.96 2371.16 451.64C2366.54 452.45 2361.82 452.66 2357.16 452.25C2336.58 450.45 2318.26 436.76 2304.17 412.67C2293.44 394.34 2285.22 370.33 2280.2 342.86C2277.7 343.7 2275.14 344.35 2272.55 344.81C2240.36 350.49 2207.58 327.23 2185.76 306.72C2159.79 282.32 2135.26 248.38 2120.12 215.93C2119.14 213.81 2119.35 211.33 2120.69 209.42ZM2358.3 439.23C2361.83 439.54 2365.39 439.39 2368.9 438.77C2389.85 435.07 2410.86 414.3 2428.03 380.27C2439.29 357.97 2448.17 331.3 2453.28 305.21C2449.34 303.13 2443.06 299.92 2436.63 297.06C2433.34 295.59 2431.85 291.73 2433.32 288.43C2434.79 285.14 2438.65 283.66 2441.95 285.12C2446.93 287.35 2451.76 289.72 2455.6 291.69C2456.12 288.13 2456.57 284.6 2456.93 281.11C2438.36 269.54 2405.83 260.13 2374.21 257.37C2357.96 255.94 2340.6 256.19 2324.69 258.05C2324.52 269.14 2323.46 279.35 2321.53 288.58C2321.52 288.63 2321.51 288.67 2321.5 288.71C2321.31 289.6 2321.12 290.48 2320.92 291.34C2320.91 291.39 2320.89 291.44 2320.88 291.49C2319.84 295.92 2318.59 300.12 2317.13 304.07C2317.11 304.13 2317.09 304.18 2317.07 304.23C2317.06 304.25 2317.06 304.26 2317.05 304.28C2316.97 304.5 2316.89 304.74 2316.8 304.96C2316.62 305.43 2316.43 305.89 2316.24 306.36C2316.12 306.66 2316 306.96 2315.88 307.26C2315.62 307.89 2315.35 308.52 2315.07 309.14C2314.94 309.44 2314.81 309.74 2314.67 310.03C2314.39 310.65 2314.1 311.27 2313.81 311.88C2313.68 312.13 2313.56 312.38 2313.43 312.63C2313.11 313.27 2312.79 313.91 2312.46 314.53C2312.42 314.6 2312.38 314.67 2312.35 314.73C2311.69 315.96 2311 317.14 2310.3 318.29C2315.03 322.48 2321.48 324.36 2327.8 323.24C2335.14 321.95 2341.28 316.8 2343.83 309.79C2345.07 306.4 2348.81 304.65 2352.2 305.89C2355.59 307.12 2357.34 310.87 2356.11 314.26C2351.97 325.64 2341.99 334.01 2330.07 336.11C2320.13 337.86 2309.98 335.06 2302.37 328.71C2300.54 330.63 2298.6 332.39 2296.56 334.01C2296.48 334.07 2296.39 334.14 2296.31 334.21C2295.77 334.63 2295.23 335.03 2294.68 335.43C2294.53 335.54 2294.37 335.65 2294.22 335.76C2293.69 336.13 2293.15 336.5 2292.61 336.86C2292.54 336.9 2292.48 336.95 2292.41 336.99C2300.68 385.15 2322.04 436.06 2358.3 439.23ZM2194.7 297.2C2222.48 323.3 2249.32 335.64 2270.28 331.94C2273.78 331.33 2277.18 330.25 2280.39 328.76C2280.99 328.48 2281.57 328.18 2282.14 327.88C2282.16 327.87 2282.18 327.86 2282.19 327.85C2308.44 314 2311.9 274.63 2311.63 252.39C2311.63 252.34 2311.63 252.29 2311.63 252.24C2311.63 251.84 2311.62 251.45 2311.61 251.06C2311.1 223.8 2305.02 192.2 2295.14 163.79C2290.7 163.97 2283.65 164.33 2276.64 165.06C2273.05 165.44 2269.84 162.84 2269.46 159.25C2269.08 155.66 2271.67 152.44 2275.27 152.07C2280.68 151.5 2286.02 151.15 2290.32 150.93C2289.17 148.07 2287.98 145.25 2286.75 142.5C2279.43 142.24 2270.91 142.96 2261.36 144.64C2242.85 147.9 2221.66 154.7 2203.24 163.29C2174.47 176.71 2147.12 196.68 2133.63 213.9C2148.19 243.86 2170.82 274.75 2194.7 297.2Z" />
			<path id="&lt;Path&gt;" class="shp1" d="M2227.66 240.15C2229.98 242.91 2229.62 247.03 2226.86 249.35C2224.09 251.67 2219.97 251.31 2217.66 248.54C2212.87 242.83 2205.33 240.09 2197.99 241.39C2190.65 242.68 2184.51 247.83 2181.96 254.84C2181.13 257.11 2179.17 258.65 2176.95 259.04C2175.86 259.23 2174.7 259.15 2173.59 258.74C2170.2 257.51 2168.45 253.76 2169.68 250.37C2173.82 238.99 2183.8 230.62 2195.72 228.52C2207.64 226.42 2219.88 230.87 2227.66 240.15Z" />
			<path id="&lt;Path&gt;" class="shp1" d="M2260.15 227.57C2260.78 231.12 2258.41 234.51 2254.85 235.14C2251.3 235.76 2247.91 233.39 2247.29 229.84C2245.18 217.92 2249.64 205.68 2258.91 197.9C2268.19 190.11 2281.01 187.85 2292.39 191.99C2295.78 193.23 2297.53 196.98 2296.29 200.37C2295.06 203.76 2291.31 205.5 2287.92 204.27C2280.92 201.72 2273.02 203.11 2267.31 207.9C2261.6 212.7 2258.86 220.23 2260.15 227.57Z" />
			<path id="&lt;Path&gt;" class="shp0" d="M2240.28 285.6C2246.38 289.88 2254.37 290.58 2261.12 287.43C2267.88 284.28 2272.48 277.71 2273.13 270.29C2273.44 266.69 2276.61 264.03 2280.2 264.35C2283.8 264.66 2286.46 267.83 2286.14 271.42C2285.09 283.48 2277.62 294.15 2266.64 299.27C2263.93 300.53 2261.1 301.42 2258.22 301.92C2249.45 303.47 2240.25 301.54 2232.78 296.31C2229.83 294.24 2229.11 290.16 2231.18 287.21C2233.25 284.25 2237.32 283.53 2240.28 285.6Z" />
			<path id="&lt;Path&gt;" class="shp1" d="M2387.45 308.97L2387.45 308.97C2391 308.35 2394.39 310.72 2395.02 314.27C2396.31 321.61 2401.47 327.75 2408.47 330.3C2415.47 332.85 2423.37 331.46 2429.08 326.67C2431.84 324.35 2435.96 324.71 2438.28 327.47C2440.6 330.24 2440.24 334.36 2437.48 336.68C2432.84 340.57 2427.32 343.08 2421.53 344.1C2415.74 345.12 2409.69 344.65 2404 342.58C2392.62 338.44 2384.25 328.46 2382.15 316.54C2381.52 312.99 2383.9 309.6 2387.45 308.97Z" />
			<path id="&lt;Path&gt;" class="shp0" d="M2363.47 380.13C2375.53 381.19 2386.2 388.66 2391.31 399.63C2392.84 402.9 2391.42 406.79 2388.15 408.31C2387.62 408.56 2387.07 408.73 2386.52 408.83C2383.68 409.33 2380.75 407.89 2379.47 405.15C2376.32 398.4 2369.75 393.8 2362.33 393.15C2354.9 392.5 2347.64 395.89 2343.36 401.99C2341.29 404.95 2337.22 405.66 2334.26 403.6C2331.31 401.53 2330.59 397.45 2332.66 394.5C2339.6 384.58 2351.41 379.08 2363.47 380.13Z" />
			<path id="&lt;Path&gt;" class="shp0" d="M2259.82 168.07L2259.53 168.18C2259.19 168.29 2258.85 168.38 2258.51 168.44C2255.41 168.99 2252.28 167.22 2251.21 164.14C2250.03 160.73 2251.84 157.01 2255.25 155.83C2255.4 155.78 2255.56 155.72 2255.72 155.67C2259.14 154.54 2262.84 156.4 2263.97 159.82C2265.11 163.24 2263.25 166.94 2259.82 168.07Z" />
			<path id="&lt;Path&gt;" class="shp0" d="M2423.02 291.3C2422.22 291.44 2421.39 291.43 2420.55 291.26L2420.28 291.2C2416.73 290.53 2414.4 287.12 2415.07 283.57C2415.74 280.03 2419.15 277.7 2422.7 278.36C2422.87 278.4 2423.04 278.43 2423.22 278.47C2426.75 279.2 2429.02 282.66 2428.28 286.19C2427.72 288.89 2425.57 290.85 2423.02 291.3Z" />
			<path id="&lt;Compound Path&gt;" fill-rule="evenodd" class="shp0" d="M2536.25 219.9C2537.78 228.57 2531.97 236.87 2523.3 238.4C2514.63 239.93 2506.33 234.12 2504.8 225.44C2503.27 216.77 2509.08 208.47 2517.75 206.94C2520.05 206.54 2522.31 206.65 2524.43 207.19L2519.39 178.55L2493.9 192.51C2499.29 223.08 2502 238.46 2502.03 238.64C2503.56 247.31 2497.75 255.61 2489.08 257.14C2480.4 258.67 2472.1 252.85 2470.58 244.18C2469.05 235.51 2474.86 227.21 2483.53 225.68C2485.82 225.28 2488.09 225.39 2490.21 225.93L2484.02 190.82C2483.67 188.83 2484.63 186.83 2486.4 185.86L2520.62 167.12C2521.96 166.39 2523.56 166.35 2524.93 167.01C2526.3 167.67 2527.27 168.94 2527.53 170.44C2533.31 203.23 2536.22 219.72 2536.25 219.9ZM2492.74 240.28C2492.12 236.72 2488.72 234.35 2485.17 234.97C2481.62 235.6 2479.24 239 2479.87 242.55C2480.49 246.09 2483.89 248.47 2487.44 247.85C2490.99 247.22 2493.37 243.82 2492.74 240.28ZM2526.96 221.54C2526.34 217.98 2522.94 215.61 2519.39 216.23C2515.84 216.86 2513.46 220.25 2514.09 223.81C2514.71 227.35 2518.11 229.73 2521.66 229.11C2525.21 228.48 2527.59 225.08 2526.96 221.54Z" />
			<path id="&lt;Compound Path&gt;" fill-rule="evenodd" class="shp0" d="M2375.08 67.66C2374.73 69.92 2372.62 71.47 2370.36 71.12L2361.49 69.76C2361.51 69.89 2368.09 107.2 2368.13 107.44C2369.48 115.04 2364.38 122.31 2356.78 123.65C2349.18 124.99 2341.9 119.9 2340.56 112.3C2339.22 104.7 2344.32 97.42 2351.92 96.08C2353.93 95.73 2355.92 95.82 2357.78 96.3L2352.35 65.52C2352.12 64.21 2352.53 62.87 2353.46 61.91C2354.4 60.96 2355.73 60.51 2357.05 60.72L2371.62 62.95C2373.87 63.29 2375.42 65.4 2375.08 67.66ZM2359.99 108.87C2359.44 105.76 2356.47 103.67 2353.36 104.22C2350.24 104.77 2348.16 107.75 2348.71 110.86C2349.25 113.97 2352.23 116.06 2355.35 115.51C2358.46 114.96 2360.54 111.98 2359.99 108.87Z" />
		</g>
		<g id="&lt;Group&gt;">
			<path id="&lt;Compound Path&gt;" fill-rule="evenodd" class="shp0" d="M2807.09 216.46C2806.54 213.31 2808.64 210.3 2811.8 209.74C2814.96 209.18 2817.97 211.29 2818.53 214.45C2820.77 227.18 2835.03 235.58 2851.59 234.77L2848.39 216.62C2847.73 216.43 2847.09 216.19 2846.47 215.89L2835.55 210.68C2831.47 208.69 2828.6 204.86 2827.84 200.39C2826.51 192.84 2831.33 185.66 2838.6 184.38L2858.01 180.96C2865.27 179.68 2872.26 184.78 2873.59 192.33C2874.4 196.78 2873.01 201.36 2869.86 204.62L2861.38 213.26C2860.9 213.75 2860.38 214.2 2859.83 214.61L2863.03 232.76C2878.87 227.85 2889.39 215.08 2887.15 202.35C2886.59 199.19 2888.7 196.18 2891.86 195.62C2895.01 195.07 2898.03 197.18 2898.58 200.33C2902.2 220.83 2884.61 241.12 2859.39 245.57C2834.17 250.01 2810.71 236.96 2807.09 216.46ZM2851.47 205.41C2852.02 205.69 2852.68 205.57 2853.1 205.12L2861.58 196.48C2862.1 195.9 2862.31 195.1 2862.15 194.34C2861.94 193.12 2860.96 192.23 2860.02 192.39L2840.61 195.81C2839.67 195.98 2839.06 197.15 2839.28 198.37C2839.39 199.15 2839.86 199.82 2840.55 200.19L2851.47 205.41Z" />
			<path id="&lt;Compound Path&gt;" class="shp1" d="M2887.32 169.89C2887.88 173.05 2885.77 176.06 2882.61 176.62C2879.45 177.17 2876.44 175.06 2875.88 171.91C2875.33 168.75 2877.43 165.74 2880.59 165.18C2883.75 164.62 2886.76 166.73 2887.32 169.89Z" />
			<path id="&lt;Compound Path&gt;" class="shp1" d="M2818.7 181.99C2819.26 185.15 2817.15 188.16 2813.99 188.72C2810.83 189.27 2807.82 187.16 2807.26 184.01C2806.71 180.85 2808.81 177.84 2811.97 177.28C2815.13 176.72 2818.14 178.83 2818.7 181.99Z" />
			<g id="&lt;Group&gt;">
				<path id="&lt;Compound Path&gt;" fill-rule="evenodd" class="shp1" d="M2990.3 251.96C2988.67 242.71 2992.77 233.39 3000.69 228.34C3008.62 223.3 3018.8 223.52 3026.49 228.91C3034.19 234.3 3037.88 243.79 3035.84 252.96C3033.81 262.13 3026.45 269.17 3017.2 270.8C3004.57 273.02 2992.54 264.59 2990.3 251.96ZM3001.73 249.95C3002.55 254.57 3006.07 258.25 3010.65 259.27C3015.24 260.29 3019.99 258.44 3022.68 254.59C3025.38 250.75 3025.49 245.65 3022.96 241.69C3020.44 237.73 3015.78 235.68 3011.15 236.49C3004.84 237.62 3000.63 243.63 3001.73 249.95Z" />
				<path id="&lt;Compound Path&gt;" fill-rule="evenodd" class="shp1" d="M3106 272.83L3120.12 352.89C3120.67 356.05 3118.56 359.06 3115.41 359.62L2984.82 382.64C2980.31 400.89 2966.83 415.3 2948.9 418.46C2935.32 420.85 2921.93 416.31 2911.68 407.18C2898.72 417.53 2881.38 420.59 2865.66 415.29C2859.15 427.38 2848.12 436.23 2834.54 438.62C2809.31 443.07 2784.72 423.6 2779.72 395.22C2778.17 386.63 2778.62 377.79 2781.03 369.39C2767.3 367.1 2756.24 356.86 2752.9 343.35C2752.83 343.09 2752.79 342.83 2752.76 342.57L2751.92 334.63C2751.92 334.55 2751.91 334.48 2751.91 334.41C2749.8 302.77 2762.01 276.03 2787.28 256.58C2771.91 243.85 2761.54 225.62 2757.82 204.52C2756.14 195.2 2755.92 185.67 2757.16 176.28C2744.81 172.31 2735.11 162.68 2731.02 150.37C2726.94 138.06 2728.99 124.54 2736.52 113.98C2744.05 103.42 2756.18 97.09 2769.14 96.94C2782.11 96.8 2794.37 102.85 2802.15 113.23C2812.22 108.07 2823.02 104.49 2834.18 102.61C2845.32 100.56 2856.69 100.23 2867.92 101.63C2871.67 89.22 2881.13 79.34 2893.36 75.04C2905.61 70.74 2919.16 72.55 2929.85 79.89C2940.54 87.24 2947.08 99.24 2947.46 112.21C2947.83 125.17 2942 137.54 2931.76 145.49C2936.13 153.89 2939.19 162.92 2940.8 172.25C2944.52 193.36 2941.01 214.04 2930.91 231.25C2945 235.71 2956.99 242.61 2966.68 251.75L2960.37 215.97C2960.16 214.8 2960.32 213.59 2960.82 212.51L2990.76 148.27C2991.56 146.55 2993.15 145.33 2995.02 145C2996.88 144.67 2998.79 145.28 3000.13 146.62L3050.25 196.74C3051.09 197.58 3051.65 198.67 3051.86 199.84L3064.97 274.17L3099.28 268.12C3102.43 267.57 3105.45 269.68 3106 272.83ZM2976.06 207.31L3034.15 197.06L2997.79 160.69L2976.06 207.31ZM2981.89 271.14C2984.86 276.35 2987.33 281.84 2989.26 287.52L3053.53 276.19L3041.43 207.57L2972.81 219.67L2981.89 271.14ZM2982.4 347.69L3000.71 344.46L2996.68 321.59L2987.84 323.15C2984.77 328.09 2980.52 332.18 2975.47 335.06C2978.32 338.96 2980.65 343.2 2982.4 347.69ZM2979.59 295.42C2971.56 267.87 2952.36 249.23 2923.95 241.3C2918.34 248.21 2911.67 254.19 2904.2 259.02C2919.66 271.79 2931.28 291.87 2936.42 314.94C2947.7 314.52 2958.56 318.72 2967.27 326.19C2976.6 322.25 2982.31 312.74 2981.4 302.66L2979.59 295.42L2979.59 295.42ZM2879.4 103.89C2888.77 106.34 2897.65 110.4 2905.64 115.88C2913.39 121.22 2920.15 127.87 2925.61 135.53C2935.62 127.05 2938.7 112.92 2933.12 101.05C2927.55 89.17 2914.71 82.51 2901.8 84.79C2891.42 86.63 2882.86 93.94 2879.4 103.89ZM2759.53 164.82C2762.05 155.75 2766.12 147.19 2771.58 139.52C2777.21 131.63 2784.17 124.79 2792.13 119.28C2783.8 109.01 2769.57 105.67 2757.54 111.17C2745.5 116.66 2738.71 129.59 2741.01 142.62C2742.81 152.78 2749.86 161.23 2759.53 164.82ZM2769.25 202.5C2772.87 223.03 2783.63 240.37 2799.56 251.32C2816.58 263.03 2838.32 266.97 2862.42 262.72C2886.51 258.47 2905.59 247.33 2917.58 230.51C2928.8 214.77 2932.98 194.8 2929.36 174.27C2925.74 153.74 2914.98 136.4 2899.06 125.45C2882.03 113.74 2860.3 109.8 2836.2 114.05C2812.1 118.3 2793.03 129.44 2781.04 146.26C2769.81 162 2765.63 181.97 2769.25 202.5ZM2785.7 358.22C2791.33 348.22 2800.1 340.55 2810.86 337.08C2807.83 313.75 2811.88 290.84 2822 273.56C2813.28 271.58 2804.93 268.23 2797.26 263.63C2773.28 280.8 2761.61 304.88 2763.49 333.53L2764.27 340.95C2766.87 350.77 2775.55 357.76 2785.7 358.22ZM2859.77 381.11C2855.88 359.04 2837.32 343.79 2818.4 347.13C2799.48 350.47 2787.26 371.13 2791.15 393.21C2795.05 415.28 2813.6 430.52 2832.52 427.19C2851.44 423.85 2863.66 403.18 2859.77 381.11ZM2903.88 398.52C2898.89 391.53 2895.55 383.51 2894.08 375.06C2889.47 348.91 2903.08 324.2 2924.98 317C2919.94 294.78 2908.34 275.89 2893.15 265.19C2884.02 269.45 2874.36 272.47 2864.43 274.16C2854.56 275.96 2844.48 276.43 2834.48 275.56C2823.9 290.8 2819.48 312.6 2822.32 335.1C2845.36 334.38 2866.6 352.95 2871.21 379.09C2872.72 387.54 2872.32 396.21 2870.02 404.49C2875.73 406.28 2881.79 406.69 2887.69 405.67C2893.58 404.61 2899.13 402.16 2903.88 398.52ZM2974.14 360.94C2970.24 338.87 2951.69 323.63 2932.77 326.96C2913.85 330.3 2901.63 350.97 2905.52 373.04C2909.41 395.11 2927.97 410.36 2946.89 407.02C2965.81 403.68 2978.03 383.01 2974.14 360.94ZM2986.44 370.57L3027.62 363.3L3015.52 294.69L2992.4 298.76L2992.77 300.25C2992.83 300.51 2992.88 300.77 2992.91 301.03C2993.25 304.19 2993.16 307.38 2992.63 310.51L3000.38 309.15C3003.54 308.59 3006.55 310.7 3007.11 313.86L3013.16 348.17C3013.71 351.32 3011.6 354.34 3008.45 354.89L2985.57 358.93C2986.25 362.77 2986.54 366.67 2986.44 370.57ZM3095.57 280.57L3026.95 292.67L3039.05 361.29L3107.67 349.19L3095.57 280.57Z" />
			</g>
			<path id="&lt;Compound Path&gt;" fill-rule="evenodd" class="shp0" d="M3048.85 344.97C3047.51 343.47 3047.04 341.38 3047.62 339.45L3058.72 302.12C3059.35 300.01 3061.11 298.44 3063.28 298.06C3065.45 297.67 3067.64 298.55 3068.95 300.31L3092.16 331.6C3093.36 333.22 3093.63 335.34 3092.89 337.2C3092.14 339.08 3090.48 340.43 3088.5 340.78L3054.19 346.83C3052.21 347.18 3050.19 346.47 3048.85 344.97ZM3061.43 333.76L3077.23 330.97L3066.54 316.56L3061.43 333.76Z" />
		</g>
		<g id="&lt;Group&gt;">
			<path id="&lt;Path&gt;" class="shp1" d="M3486.79 169.29C3489.06 170.88 3492.18 170.33 3493.77 168.06C3495.36 165.8 3494.81 162.67 3492.54 161.09C3488.31 158.12 3487.28 152.27 3490.24 148.04C3496.37 139.28 3494.23 127.16 3485.48 121.03C3483.21 119.45 3480.09 120 3478.5 122.26C3476.91 124.53 3477.46 127.65 3479.73 129.24C3483.96 132.2 3485 138.06 3482.03 142.29C3475.9 151.05 3478.04 163.16 3486.79 169.29Z" />
			<path id="&lt;Path&gt;" class="shp1" d="M3545.99 158.86C3548.26 160.45 3551.38 159.89 3552.97 157.63C3554.56 155.36 3554.01 152.24 3551.74 150.65C3547.5 147.69 3546.47 141.83 3549.44 137.6C3555.57 128.84 3553.43 116.73 3544.67 110.59C3542.41 109.01 3539.28 109.56 3537.7 111.82C3536.11 114.09 3536.66 117.21 3538.93 118.8C3543.16 121.77 3544.19 127.62 3541.23 131.85C3535.1 140.61 3537.23 152.72 3545.99 158.86Z" />
			<path id="&lt;Path&gt;" class="shp1" d="M3504.48 138.07C3505.62 144.54 3509.22 150.19 3514.61 153.97C3516.88 155.55 3520 155 3521.59 152.74C3523.17 150.47 3522.62 147.35 3520.36 145.76C3513.76 141.14 3512.15 132.01 3516.77 125.41C3524.56 114.29 3521.85 98.9 3510.72 91.11C3508.45 89.52 3505.33 90.07 3503.74 92.34C3502.15 94.6 3502.71 97.73 3504.97 99.31C3511.57 103.93 3513.18 113.06 3508.56 119.66C3504.79 125.05 3503.34 131.59 3504.48 138.07Z" />
			<path id="&lt;Path&gt;" class="shp0" d="M3475.55 220.26C3480.25 229.22 3490.09 234.05 3500.05 232.29L3522.11 228.4C3524.83 227.92 3526.65 225.33 3526.17 222.6C3525.69 219.88 3523.09 218.06 3520.37 218.54L3498.31 222.43C3492.67 223.42 3487.08 220.68 3484.41 215.61L3473.82 195.43C3473.39 194.54 3473.8 193.68 3474.77 193.49L3566.93 177.24C3569.67 176.75 3572.33 174.61 3573.4 172.04L3592.03 127.04C3602.11 102.7 3632.5 78.32 3658.42 73.74L3658.5 73.73C3663.03 72.94 3667.78 76.06 3668.68 80.4C3669.15 82.71 3668.68 85.04 3667.35 86.98C3665.92 89.09 3663.8 90.24 3661.35 90.67C3637.62 94.86 3616.85 111.91 3607.09 135.26L3579.16 202.04C3577.43 206.19 3573.76 209.12 3569.34 209.9L3543.39 214.48C3540.66 214.96 3538.84 217.56 3539.32 220.28C3539.8 223.01 3542.4 224.83 3545.13 224.35L3571.08 219.77C3578.87 218.39 3585.35 213.21 3588.41 205.91L3616.33 139.12C3624.79 118.89 3642.69 104.13 3663.09 100.54C3668.21 99.63 3672.66 96.99 3675.63 92.64C3678.5 88.43 3679.52 83.37 3678.49 78.39C3676.49 68.63 3666.74 62.12 3656.77 63.86L3656.68 63.88C3627.33 69.05 3594.19 95.65 3582.78 123.2L3564.44 167.5L3473.03 183.62C3465.52 184.88 3461.39 193.4 3464.95 200.08L3475.55 220.26Z" />
			<path id="&lt;Path&gt;" class="shp1" d="" />
			<path id="&lt;Compound Path&gt;" fill-rule="evenodd" class="shp1" d="M3705.68 232.53C3707.6 243.41 3700.28 253.83 3689.37 255.75L3684.42 256.63L3677.33 297.77C3676.86 300.53 3674.21 302.31 3671.54 301.85C3668.82 301.38 3666.99 298.79 3667.46 296.07L3673.93 258.47L3407.61 305.43L3451.96 382.96C3459.28 395.76 3473.96 402.64 3488.49 400.08L3630.31 375.07C3644.83 372.51 3656.27 361.03 3658.77 346.49L3663.41 319.57C3663.88 316.84 3666.47 315.01 3669.2 315.48C3671.92 315.95 3673.75 318.54 3673.28 321.27L3668.65 348.19C3667.21 356.52 3663.49 364.06 3658.17 370.16L3697.26 363.27C3702.85 362.28 3708.19 366.03 3709.18 371.61C3712.03 387.79 3701.19 403.27 3685.01 406.12L3447.7 447.96C3431.53 450.82 3416.04 439.98 3413.19 423.8C3412.21 418.22 3415.95 412.87 3421.53 411.89L3460.63 404.99C3453.54 401.08 3447.46 395.26 3443.27 387.93L3397.13 307.28L3392.18 308.15C3381.27 310.08 3370.83 302.79 3368.91 291.91C3366.99 281.03 3374.31 270.61 3385.22 268.69L3682.41 216.29C3693.32 214.36 3703.76 221.65 3705.68 232.53ZM3423.27 421.75C3423.13 421.78 3423.03 421.92 3423.06 422.06C3424.95 432.8 3435.23 439.99 3445.96 438.1L3683.27 396.25C3694.01 394.36 3701.2 384.08 3699.31 373.35C3699.29 373.2 3699.15 373.11 3699 373.13L3423.27 421.75ZM3695.81 234.27C3694.85 228.83 3689.62 225.19 3684.15 226.15L3386.96 278.56C3381.49 279.52 3377.82 284.73 3378.78 290.17C3379.74 295.61 3384.97 299.25 3390.44 298.29L3687.63 245.89C3693.1 244.92 3696.77 239.71 3695.81 234.27Z" />
		</g>
	</g>
</svg>